<svg xmlns="http://www.w3.org/2000/svg" width="165" height="31" viewBox="0 0 165 31">
    <g fill="none" fill-rule="evenodd">
        <g fill-rule="nonzero" transform="translate(0 .36)">
            <circle cx="14.364" cy="14.364" r="14.364" fill="#E60000"/>
            <path fill="#FFF" d="M14.524 22.144c-3.883.014-7.924-3.329-7.94-8.695-.01-3.548 1.89-6.964 4.316-8.995 2.367-1.977 5.61-3.245 8.551-3.255.343-.012.685.027 1.017.114-2.571.538-4.618 2.95-4.61 5.689 0 .077.006.155.018.232 4.303 1.057 6.256 3.675 6.268 7.298.012 3.623-2.823 7.596-7.62 7.612z"/>
        </g>
        <text font-family="Poppins-Bold, Poppins" font-size="12.096" font-weight="bold" transform="translate(0 -3)">
            <tspan x="34.44" y="13" fill="#333">Complaint</tspan>  <tspan x="34.44" y="30" fill="#E60000" font-family="Poppins-Medium, Poppins" font-weight="400">Management System</tspan>
        </text>
    </g>
</svg>
