<?xml version="1.0" encoding="UTF-8"?>
<svg width="398px" height="137px" viewBox="0 0 398 137" version="1.1" xmlns="http://www.w3.org/2000/svg" xmlns:xlink="http://www.w3.org/1999/xlink">
    <!-- Generator: Sketch 55 (78076) - https://sketchapp.com -->
    <title>Group</title>
    <desc>Created with Sketch.</desc>
    <g id="Page-1" stroke="none" stroke-width="1" fill="none" fill-rule="evenodd">
        <g id="Login" transform="translate(-84.000000, -249.000000)" fill-rule="nonzero">
            <g id="Group" transform="translate(79.000000, 243.000000)">
                <g id="Group-2" transform="translate(5.418284, 54.407145)">
                    <path d="M287.11515,68.4271478 L288.347229,68.4271478 L299.226218,85.2830269 L299.226218,68.4271478 L300.169937,68.4271478 L300.169937,87.3015381 L299.35729,87.3015381 L288.05887,69.8165127 L288.05887,87.3015381 L287.11515,87.3015381 L287.11515,68.4271478 Z M305.204772,68.4271478 L316.345906,68.4271478 L316.345906,69.3708674 L306.200921,69.3708674 L306.200921,76.9206235 L315.192471,76.9206235 L315.192471,77.8381286 L306.200921,77.8381286 L306.200921,86.3578186 L316.398334,86.3578186 L316.398334,87.3015381 L305.204772,87.3015381 L305.204772,68.4271478 Z M324.945904,77.5497698 L318.995228,68.4271478 L320.174877,68.4271478 L325.601264,76.8157657 L330.975223,68.4271478 L332.154872,68.4271478 L326.204196,77.5497698 L332.600517,87.3015381 L331.394654,87.3015381 L325.548835,78.2837739 L319.729232,87.3015381 L318.549582,87.3015381 L324.945904,77.5497698 Z M339.39172,69.3708674 L333.572116,69.3708674 L333.572116,68.4271478 L346.207472,68.4271478 L346.207472,69.3708674 L340.387868,69.3708674 L340.387868,87.3015381 L339.39172,87.3015381 L339.39172,69.3708674 Z M357.140554,84.9422393 C358.066802,84.9422393 358.949346,84.7849543 359.788212,84.4703796 L359.788212,79.8042109 L356.223049,79.8042109 L356.223049,77.2351966 L362.907729,77.2351966 L362.907729,85.9646022 C362.016434,86.471417 361.059617,86.8733676 360.037249,87.170466 C359.014881,87.4675643 357.918255,87.6161113 356.747338,87.6161113 C355.436609,87.6161113 354.248234,87.415136 353.182175,87.0131794 C352.116116,86.6112228 351.207358,86.0126659 350.455874,85.2174909 C349.70439,84.4223158 349.123309,83.4305464 348.712614,82.242153 C348.30192,81.0537595 348.096575,79.6731466 348.096575,78.1002729 C348.096575,76.47497 348.315027,75.0375598 348.751936,73.787999 C349.188845,72.5384382 349.800509,71.4942405 350.586946,70.6553745 C351.373383,69.8165085 352.317093,69.1829994 353.418105,68.7548282 C354.519116,68.326657 355.742444,68.1125747 357.088125,68.1125747 C358.293995,68.1125747 359.368776,68.2742287 360.3125,68.5975416 C361.256224,68.9208546 362.121292,69.3533884 362.907729,69.895156 L362.068867,72.8573867 C361.299907,72.2981427 360.52222,71.8481328 359.735783,71.5073435 C358.949346,71.1665542 358.058064,70.9961621 357.061911,70.9961621 C356.240521,70.9961621 355.48031,71.1316019 354.781255,71.4024858 C354.0822,71.6733696 353.483643,72.0927963 352.985567,72.6607784 C352.48749,73.2287606 352.098647,73.9583883 351.819025,74.8496834 C351.539403,75.7409785 351.399594,76.8070214 351.399594,78.047844 C351.399594,79.2711902 351.539403,80.319757 351.819025,81.1935757 C352.098647,82.0673945 352.491859,82.779546 352.998674,83.3300518 C353.505489,83.8805576 354.108415,84.2868773 354.80747,84.5490229 C355.506525,84.8111685 356.284212,84.9422393 357.140554,84.9422393 Z M366.815344,68.4271478 L378.821553,68.4271478 L378.821553,71.3107352 L370.118362,71.3107352 L370.118362,76.2914771 L377.720547,76.2914771 L377.720547,79.0177779 L370.118362,79.0177779 L370.118362,84.5228084 L378.900196,84.5228084 L378.900196,87.3015381 L366.815344,87.3015381 L366.815344,68.4271478 Z M382.047593,68.4271478 L385.586541,68.4271478 L393.45087,80.9838603 L393.45087,68.4271478 L396.517959,68.4271478 L396.517959,87.3015381 L393.765443,87.3015381 L385.114681,73.486533 L385.114681,87.3015381 L382.047593,87.3015381 L382.047593,68.4271478 Z" id="NEXTGEN" fill="#BD0000"></path>
                    <g id="iDialogue" transform="translate(0.208636, 0.829431)">
                        <path d="M0.768956641,15.5189431 L9.43719514,15.5189431 L9.43719514,51.1705692 L0.768956641,51.1705692 L0.768956641,15.5189431 Z M5.10307589,10.4158672 C3.51855125,10.4158672 2.27192189,9.96148831 1.36315041,9.05271682 C0.454378926,8.14394534 -1.86517468e-14,6.99052191 -1.86517468e-14,5.59241194 C-1.86517468e-14,4.19430196 0.454378926,3.04087853 1.36315041,2.13210705 C2.27192189,1.22333557 3.51855125,0.768956641 5.10307589,0.768956641 C6.68760053,0.768956641 7.93422989,1.22333557 8.84300138,2.13210705 C9.75177286,3.04087853 10.2061518,4.19430196 10.2061518,5.59241194 C10.2061518,6.99052191 9.75177286,8.14394534 8.84300138,9.05271682 C7.93422989,9.96148831 6.68760053,10.4158672 5.10307589,10.4158672 Z" id="i" fill="#BD0000"></path>
                        <path d="M28.661112,0.838861791 L43.3411933,0.838861791 C46.5102426,0.838861791 49.4112773,1.37479591 52.0443844,2.44668022 C54.6774915,3.51856454 56.9493861,5.10306541 58.8601364,7.20023037 C60.7708867,9.29739533 62.2621817,11.9188122 63.334066,15.0645597 C64.4059503,18.2103071 64.9418844,21.8336878 64.9418844,25.9348104 C64.9418844,30.0825366 64.4059503,33.7292188 63.334066,36.8749662 C62.2621817,40.0207137 60.759236,42.6537813 58.8251838,44.7742481 C56.8911317,46.8947149 54.6075863,48.4908665 51.9744792,49.5627508 C49.3413721,50.6346351 46.4636389,51.1705692 43.3411933,51.1705692 L28.661112,51.1705692 L28.661112,0.838861791 Z M31.3175076,48.6539839 L43.3411933,48.6539839 C46.1374132,48.6539839 48.6889257,48.1879542 50.9958071,47.2558809 C53.3026886,46.3238076 55.2949654,44.9140678 56.9726974,43.0266193 C58.6504294,41.1391709 59.9553124,38.7740703 60.8873857,35.9312467 C61.8194591,33.0884231 62.2854887,29.7796124 62.2854887,26.0047155 C62.2854887,22.2298186 61.8194591,18.9326587 60.8873857,16.1131369 C59.9553124,13.2936151 58.6504294,10.9401653 56.9726974,9.05271682 C55.2949654,7.16526836 53.3026886,5.74387787 50.9958071,4.78850272 C48.6889257,3.83312757 46.1374132,3.35544716 43.3411933,3.35544716 L31.3175076,3.35544716 L31.3175076,48.6539839 Z M84.1658012,0.838861791 L86.8221969,0.838861791 L86.8221969,51.1705692 L84.1658012,51.1705692 L84.1658012,0.838861791 Z M144.913377,51.1705692 L142.117171,51.1705692 L136.245138,35.3021004 L112.966723,35.3021004 L107.024786,51.1705692 L104.298485,51.1705692 L123.24278,0.838861791 L126.248702,0.838861791 L144.913377,51.1705692 Z M113.87549,32.785515 L135.336371,32.785515 L124.640883,3.91468836 L113.87549,32.785515 Z M161.760518,0.838861791 L164.416914,0.838861791 L164.416914,48.6539839 L188.953621,48.6539839 L188.953621,51.1705692 L161.760518,51.1705692 L161.760518,0.838861791 Z M240.543622,25.9348104 C240.543622,30.2223476 240.03099,33.9855372 239.005709,37.224492 C237.980428,40.4634467 236.570689,43.1780696 234.776448,45.3684418 C232.982206,47.5588141 230.83847,49.2132195 228.345174,50.3317074 C225.851878,51.4501954 223.137255,52.009431 220.201224,52.009431 C217.265193,52.009431 214.562221,51.4501954 212.092227,50.3317074 C209.622232,49.2132195 207.490147,47.5704649 205.695905,45.4033944 C203.901664,43.236324 202.503575,40.5333519 201.501597,37.2943971 C200.499618,34.0554423 199.998636,30.3155543 199.998636,26.0746207 C199.998636,21.7870834 200.511268,18.0238938 201.536549,14.7849391 C202.56183,11.5459843 203.971569,8.83136147 205.765811,6.64098918 C207.560052,4.45061688 209.703788,2.79621156 212.197084,1.67772358 C214.69038,0.559235601 217.405003,2.13162821e-14 220.341034,2.13162821e-14 C223.277065,2.13162821e-14 225.980037,0.559235601 228.450032,1.67772358 C230.920026,2.79621156 233.052112,4.43896614 234.846353,6.6060366 C236.640594,8.77310706 238.038683,11.4760791 239.040662,14.7150339 C240.04264,17.9539887 240.543622,21.6938768 240.543622,25.9348104 Z M237.887227,26.0047155 C237.887227,22.0900076 237.456149,18.6646895 236.593981,15.7286586 C235.731814,12.7926276 234.531787,10.3459719 232.993866,8.38861791 C231.455945,6.43126394 229.603477,4.95161975 227.436407,3.94964093 C225.269336,2.94766212 222.880934,2.44668022 220.271129,2.44668022 C217.661324,2.44668022 215.272922,2.94766212 213.105851,3.94964093 C210.938781,4.95161975 209.086313,6.43126394 207.548392,8.38861791 C206.010471,10.3459719 204.810445,12.7926276 203.948277,15.7286586 C203.086109,18.6646895 202.655031,22.0900076 202.655031,26.0047155 C202.655031,29.9194234 203.086109,33.3447415 203.948277,36.2807724 C204.810445,39.2168034 206.010471,41.6634591 207.548392,43.6208131 C209.086313,45.5781671 210.938781,47.0578113 213.105851,48.0597901 C215.272922,49.0617689 217.661324,49.5627508 220.271129,49.5627508 C222.880934,49.5627508 225.269336,49.0617689 227.436407,48.0597901 C229.603477,47.0578113 231.455945,45.5781671 232.993866,43.6208131 C234.531787,41.6634591 235.731814,39.2168034 236.593981,36.2807724 C237.456149,33.3447415 237.887227,29.9194234 237.887227,26.0047155 Z M277.872973,49.5627508 C280.24976,49.5627508 282.440099,49.23653 284.444057,48.5840787 C286.448014,47.9316274 288.405339,47.0228695 290.316089,45.8577779 L290.316089,28.0319648 L277.803068,28.0319648 L277.803068,25.5852846 L292.972485,25.5852846 L292.972485,47.0461654 C290.735509,48.5840864 288.370409,49.7957635 285.877112,50.6812332 C283.383816,51.5667028 280.669193,52.009431 277.733163,52.009431 C274.564113,52.009431 271.68638,51.4734969 269.099877,50.4016126 C266.513373,49.3297283 264.276431,47.7219259 262.388982,45.5781573 C260.501534,43.4343887 259.045191,40.7547181 258.01991,37.5390651 C256.99463,34.3234122 256.481997,30.5718734 256.481997,26.2843361 C256.481997,21.9501952 257.017931,18.1404027 258.089816,14.8548442 C259.1617,11.5692858 260.641344,8.81971073 262.528793,6.6060366 C264.416241,4.39236247 266.676485,2.73795715 269.309592,1.64277101 C271.942699,0.54758486 274.843734,2.13162821e-14 278.012783,2.13162821e-14 C281.135229,2.13162821e-14 283.919756,0.500981893 286.366448,1.50296071 C288.813141,2.50493952 291.015131,3.82147334 292.972485,5.45260164 L291.784098,7.96918701 C289.640329,6.19824771 287.449989,4.83511093 285.213013,3.87973578 C282.976038,2.92436063 280.482779,2.44668022 277.733163,2.44668022 C275.03015,2.44668022 272.536891,2.93601137 270.253312,3.91468836 C267.969732,4.89336534 266.012407,6.36135879 264.381279,8.31871276 C262.750151,10.2760667 261.468569,12.746024 260.536496,15.7286586 C259.604422,18.7112932 259.138393,22.1832142 259.138393,26.1445258 C259.138393,30.0592337 259.592772,33.4845518 260.501543,36.4205827 C261.410315,39.3566137 262.680246,41.8032694 264.311374,43.7606234 C265.942502,45.7179774 267.911478,47.1743201 270.218359,48.1296952 C272.52524,49.0850704 275.076753,49.5627508 277.872973,49.5627508 Z M314.782892,33.9039974 C314.782892,39.2634189 315.924665,43.2130204 318.208245,45.7529202 C320.491824,48.29282 324.19676,49.5627508 329.323163,49.5627508 C334.402963,49.5627508 338.096248,48.29282 340.40313,45.7529202 C342.710011,43.2130204 343.863434,39.2634189 343.863434,33.9039974 L343.863434,0.838861791 L346.51983,0.838861791 L346.51983,33.8340922 C346.51983,39.9857761 345.11009,44.5528669 342.290569,47.5355015 C339.471047,50.5181361 335.148622,52.009431 329.323163,52.009431 C323.451102,52.009431 319.117026,50.5297868 316.320806,47.570454 C313.524586,44.6111213 312.126497,40.0789827 312.126497,33.9739025 L312.126497,0.838861791 L314.782892,0.838861791 L314.782892,33.9039974 Z M367.071945,0.838861791 L396.781633,0.838861791 L396.781633,3.35544716 L369.72834,3.35544716 L369.72834,23.4881301 L393.705807,23.4881301 L393.705807,25.9348104 L369.72834,25.9348104 L369.72834,48.6539839 L396.921443,48.6539839 L396.921443,51.1705692 L367.071945,51.1705692 L367.071945,0.838861791 Z" id="DIALOGUE" fill="#333333"></path>
                    </g>
                </g>
                <path d="M351.756828,6.58292686 L352.831619,6.58292686 L359.018225,24.0679523 L365.283474,6.58292686 L366.332051,6.58292686 L359.463871,25.4573171 L358.493937,25.4573171 L351.756828,6.58292686 Z M380.096292,25.4573171 L368.745444,25.4573171 L368.745444,24.7233131 C370.54551,23.0455811 372.07467,21.5513735 373.332969,20.2406454 C374.591268,18.9299173 375.609252,17.7502797 376.38695,16.7016972 C377.164649,15.6531147 377.728254,14.6962976 378.077781,13.831217 C378.427309,12.9661365 378.60207,12.1316521 378.60207,11.3277389 C378.60207,10.0694399 378.230702,9.06019439 377.487956,8.29997209 C376.745211,7.53974979 375.727227,7.15964434 374.433975,7.15964434 C373.367916,7.15964434 372.424206,7.43489311 371.602817,7.98539892 C370.781427,8.53590472 370.00374,9.3092227 369.269732,10.3053761 L368.745444,9.46651427 C369.461975,8.50531366 370.29209,7.73199568 371.235815,7.14653713 C372.179539,6.56107857 373.271796,6.26835369 374.512619,6.26835369 C375.264103,6.26835369 375.954409,6.38631745 376.583559,6.62224851 C377.212708,6.85817956 377.745729,7.19459473 378.182639,7.6315041 C378.619548,8.06841347 378.960332,8.6014349 379.205002,9.23058439 C379.449671,9.85973388 379.572004,10.5587784 379.572004,11.3277389 C379.572004,12.1316521 379.423457,12.9573984 379.126358,13.8050026 C378.82926,14.6526068 378.318084,15.5963168 377.592814,16.6361611 C376.867545,17.6760054 375.910727,18.8381669 374.722334,20.1226804 C373.53394,21.407194 372.048471,22.8882945 370.265881,24.5660265 L380.096292,24.5660265 L380.096292,25.4573171 Z M385.73406,24.9330285 C385.73406,25.1776978 385.655417,25.3786731 385.49813,25.5359604 C385.340842,25.6932478 385.139867,25.7718903 384.895198,25.7718903 C384.650529,25.7718903 384.449553,25.6932478 384.292266,25.5359604 C384.134979,25.3786731 384.056336,25.1776978 384.056336,24.9330285 C384.056336,24.6883593 384.134979,24.487384 384.292266,24.3300966 C384.449553,24.1728092 384.650529,24.0941667 384.895198,24.0941667 C385.139867,24.0941667 385.340842,24.1728092 385.49813,24.3300966 C385.655417,24.487384 385.73406,24.6883593 385.73406,24.9330285 Z M401.621669,16.020122 C401.621669,14.5521065 401.48623,13.2632432 401.215346,12.1534934 C400.944462,11.0437436 400.564356,10.1218787 400.075018,9.38787097 C399.585679,8.65386324 399.008968,8.09899666 398.344866,7.72325461 C397.680763,7.34751255 396.946767,7.15964434 396.142853,7.15964434 C395.33894,7.15964434 394.600574,7.34751255 393.927734,7.72325461 C393.254893,8.09899666 392.678182,8.65386324 392.197581,9.38787097 C391.716981,10.1218787 391.341245,11.0437436 391.070361,12.1534934 C390.799477,13.2632432 390.664037,14.5521065 390.664037,16.020122 C390.664037,17.4881375 390.799477,18.7770008 391.070361,19.8867506 C391.341245,20.9965004 391.716981,21.9183653 392.197581,22.652373 C392.678182,23.3863808 393.254893,23.9412473 393.927734,24.3169894 C394.600574,24.6927315 395.33894,24.8805997 396.142853,24.8805997 C396.946767,24.8805997 397.680763,24.6927315 398.344866,24.3169894 C399.008968,23.9412473 399.585679,23.3863808 400.075018,22.652373 C400.564356,21.9183653 400.944462,20.9965004 401.215346,19.8867506 C401.48623,18.7770008 401.621669,17.4881375 401.621669,16.020122 Z M402.591603,15.9939076 C402.591603,17.601734 402.429949,19.0172992 402.106636,20.2406454 C401.783323,21.4639916 401.333314,22.4863442 400.756593,23.3077338 C400.179873,24.1291234 399.493935,24.7451564 398.69876,25.1558512 C397.903585,25.566546 397.042887,25.7718903 396.116639,25.7718903 C395.190391,25.7718903 394.334062,25.566546 393.547625,25.1558512 C392.761188,24.7451564 392.083988,24.1291234 391.516006,23.3077338 C390.948024,22.4863442 390.502383,21.4727297 390.17907,20.2668598 C389.855757,19.06099 389.694103,17.6541629 389.694103,16.0463364 C389.694103,14.43851 389.855757,13.0229448 390.17907,11.7995986 C390.502383,10.5762524 390.952393,9.55389981 391.529113,8.7325102 C392.105834,7.91112059 392.791771,7.29508762 393.586946,6.88439282 C394.382121,6.47369801 395.24282,6.26835369 396.169068,6.26835369 C397.095316,6.26835369 397.951645,6.47369801 398.738082,6.88439282 C399.524519,7.29508762 400.201718,7.91112059 400.7697,8.7325102 C401.337683,9.55389981 401.783323,10.5718834 402.106636,11.7864914 C402.429949,13.0010994 402.591603,14.4035575 402.591603,15.9939076 Z" id="V2.0" fill="#BD0000"></path>
            </g>
        </g>
    </g>
</svg>